<?xml version="1.0" standalone="no"?>
<!DOCTYPE svg PUBLIC "-//W3C//DTD SVG 20010904//EN"
 "http://www.w3.org/TR/2001/REC-SVG-20010904/DTD/svg10.dtd">
<svg version="1.0" xmlns="http://www.w3.org/2000/svg"
 width="237.000000pt" height="237.000000pt" viewBox="0 0 237.000000 237.000000"
 preserveAspectRatio="xMidYMid meet">
<metadata>
Created by potrace 1.14, written by Peter Selinger 2001-2017
</metadata>
<g transform="translate(0.000000,237.000000) scale(0.100000,-0.100000)"
fill="#000000" stroke="none">
<path d="M1020 2289 c-84 -11 -223 -51 -305 -88 -228 -104 -443 -319 -544
-544 -74 -164 -108 -377 -91 -558 10 -101 35 -227 50 -242 4 -4 25 -1 47 8
l39 16 -20 72 c-28 103 -30 380 -2 482 48 180 141 340 271 470 170 171 390
274 622 292 l83 6 0 48 0 49 -42 -1 c-24 -1 -72 -5 -108 -10z"/>
<path d="M998 2104 c-283 -51 -526 -240 -654 -509 -56 -117 -60 -132 -37 -138
76 -22 76 -22 101 44 13 34 40 89 59 123 44 75 198 229 275 275 110 64 239
106 361 118 l67 6 0 48 0 49 -47 -1 c-27 0 -82 -7 -125 -15z"/>
<path d="M1075 1923 c-63 -9 -152 -36 -211 -64 -75 -35 -184 -114 -184 -132 0
-14 41 -57 54 -57 4 0 35 19 69 43 96 68 234 116 330 117 l37 0 0 50 0 50 -32
-1 c-18 -1 -46 -4 -63 -6z"/>
<path d="M445 1133 c33 -312 245 -559 547 -639 92 -24 266 -21 365 6 77 21
208 83 251 120 23 19 23 20 6 49 -25 42 -40 45 -77 17 -94 -72 -231 -116 -359
-116 -246 0 -464 134 -575 353 -29 59 -63 186 -63 239 l0 38 -51 0 -51 0 7
-67z"/>
<path d="M1555 979 c-4 -12 -35 -49 -69 -83 -60 -60 -145 -110 -206 -123 -29
-5 -30 -8 -25 -37 13 -64 15 -66 43 -60 141 34 282 144 345 270 l16 31 -38 12
c-52 15 -59 14 -66 -10z"/>
<path d="M2074 768 c-87 -195 -305 -402 -511 -488 -143 -60 -213 -73 -384 -74
l-157 -1 -6 -44 c-3 -24 -3 -47 0 -50 3 -3 76 -5 162 -5 134 1 171 5 254 27
317 84 565 281 712 567 l46 89 -37 10 c-56 16 -58 15 -79 -31z"/>
<path d="M1761 638 c-115 -122 -232 -190 -396 -233 -230 -60 -492 -5 -691 145
l-67 52 -36 -37 -36 -36 30 -25 c255 -213 592 -279 900 -175 93 31 222 105
302 172 61 52 155 159 150 172 -1 4 -20 16 -42 26 l-40 17 -74 -78z"/>
</g>
</svg>
